<svg width="163" height="72" viewBox="0 0 163 72" fill="none" xmlns="http://www.w3.org/2000/svg">
<path d="M40.931 0.628938H43.676V43.9999H38.552V12.9509L23.058 36.1309H20.618L5.124 13.2559V43.9999H0V0.628938H2.745L21.96 29.4209L40.931 0.628938Z" fill="black"/>
<path d="M69.1697 44.7319C65.591 44.7319 62.5207 44.4473 59.9587 43.8779C57.4374 43.3086 54.55 42.3326 51.2967 40.9499L53.2487 36.1309C56.38 37.5543 59.0437 38.5506 61.2397 39.1199C63.4764 39.6893 66.018 39.9739 68.8647 39.9739C72.0367 39.9739 74.497 39.3233 76.2457 38.0219C78.035 36.6799 78.9297 34.8296 78.9297 32.4709C78.9297 30.2343 78.0147 28.6279 76.1847 27.6519C74.3954 26.6353 71.3657 25.6796 67.0957 24.7849C61.931 23.7276 58.0677 22.3043 55.5057 20.5149C52.9844 18.7256 51.7237 15.9603 51.7237 12.2189C51.7237 8.64027 53.025 5.75294 55.6277 3.55694C58.271 1.36094 62.0124 0.262939 66.8517 0.262939C72.6264 0.262939 77.852 1.38127 82.5287 3.61794L80.3327 8.13194C76.1847 6.05794 71.6707 5.02094 66.7907 5.02094C63.6187 5.02094 61.199 5.7326 59.5317 7.15594C57.8644 8.57927 57.0307 10.2669 57.0307 12.2189C57.0307 14.3743 57.966 15.9603 59.8367 16.9769C61.7074 17.9936 64.737 18.9696 68.9257 19.9049C71.4064 20.4336 73.4397 20.9623 75.0257 21.4909C76.6524 22.0196 78.218 22.7516 79.7227 23.6869C81.2681 24.5816 82.4067 25.7406 83.1387 27.1639C83.8707 28.5466 84.2367 30.2139 84.2367 32.1659C84.2367 36.3546 82.8947 39.5063 80.2107 41.6209C77.5674 43.6949 73.887 44.7319 69.1697 44.7319Z" fill="black"/>
<path d="M107.176 44.7319C103.597 44.7319 100.527 44.4473 97.9646 43.8779C95.4432 43.3086 92.5559 42.3326 89.3026 40.9499L91.2546 36.1309C94.3859 37.5543 97.0496 38.5506 99.2456 39.1199C101.482 39.6893 104.024 39.9739 106.871 39.9739C110.043 39.9739 112.503 39.3233 114.252 38.0219C116.041 36.6799 116.936 34.8296 116.936 32.4709C116.936 30.2343 116.021 28.6279 114.191 27.6519C112.401 26.6353 109.372 25.6796 105.102 24.7849C99.9369 23.7276 96.0736 22.3043 93.5116 20.5149C90.9902 18.7256 89.7296 15.9603 89.7296 12.2189C89.7296 8.64027 91.0309 5.75294 93.6336 3.55694C96.2769 1.36094 100.018 0.262939 104.858 0.262939C110.632 0.262939 115.858 1.38127 120.535 3.61794L118.339 8.13194C114.191 6.05794 109.677 5.02094 104.797 5.02094C101.625 5.02094 99.2049 5.7326 97.5376 7.15594C95.8702 8.57927 95.0366 10.2669 95.0366 12.2189C95.0366 14.3743 95.9719 15.9603 97.8426 16.9769C99.7132 17.9936 102.743 18.9696 106.932 19.9049C109.412 20.4336 111.446 20.9623 113.032 21.4909C114.658 22.0196 116.224 22.7516 117.729 23.6869C119.274 24.5816 120.413 25.7406 121.145 27.1639C121.877 28.5466 122.243 30.2139 122.243 32.1659C122.243 36.3546 120.901 39.5063 118.217 41.6209C115.573 43.6949 111.893 44.7319 107.176 44.7319Z" fill="black"/>
<path d="M146.584 0.994937C157.117 0.994937 162.383 5.83427 162.383 15.5129C162.383 25.4356 156.568 30.3969 144.937 30.3969H134.689V43.9999H129.565V0.994937H146.584ZM144.632 25.6389C152.928 25.6389 157.076 22.2839 157.076 15.5739C157.076 9.0266 153.376 5.75294 145.974 5.75294H134.689V25.6389H144.632Z" fill="black"/>
<path d="M1.123 71.9999V55.0799H2.515V70.7039H12.619V71.9999H1.123Z" fill="black"/>
<path d="M27.9518 71.9999L25.9838 67.5359H17.0078L15.0398 71.9999H13.5278L21.0398 54.9839H21.9518L29.4398 71.9999H27.9518ZM21.4958 57.0719L19.6238 61.4399L17.6078 66.2399H25.3598L23.3438 61.4399L21.4958 57.0719Z" fill="black"/>
<path d="M41.209 63.2159C43.849 63.6799 45.169 65.0399 45.169 67.2959C45.169 70.4319 43.257 71.9999 39.433 71.9999H31.873V55.0799H38.809C40.473 55.0799 41.737 55.4559 42.601 56.2079C43.465 56.9599 43.897 58.0079 43.897 59.3519C43.897 61.3839 43.001 62.6719 41.209 63.2159ZM33.265 56.3759V62.7359H38.665C41.209 62.7359 42.481 61.6239 42.481 59.3999C42.481 58.4079 42.153 57.6559 41.497 57.1439C40.857 56.6319 39.961 56.3759 38.809 56.3759H33.265ZM39.433 70.7039C40.937 70.7039 42.033 70.4239 42.721 69.8639C43.409 69.3039 43.753 68.4479 43.753 67.2959C43.753 65.1199 42.169 64.0319 39.001 64.0319H33.265V70.7039H39.433Z" fill="black"/>
</svg>
