<svg width="164" height="72" viewBox="0 0 164 72" fill="none" xmlns="http://www.w3.org/2000/svg">
<path d="M41.8724 0.628938H44.6174V43.9999H39.4934V12.9509L23.9994 36.1309H21.5594L6.06541 13.2559V43.9999H0.941406V0.628938H3.68641L22.9014 29.4209L41.8724 0.628938Z" fill="white"/>
<path d="M70.1111 44.7319C66.5324 44.7319 63.4621 44.4473 60.9001 43.8779C58.3788 43.3086 55.4915 42.3326 52.2381 40.9499L54.1901 36.1309C57.3215 37.5543 59.9851 38.5506 62.1811 39.1199C64.4178 39.6893 66.9595 39.9739 69.8061 39.9739C72.9781 39.9739 75.4385 39.3233 77.1871 38.0219C78.9765 36.6799 79.8711 34.8296 79.8711 32.4709C79.8711 30.2343 78.9561 28.6279 77.1261 27.6519C75.3368 26.6353 72.3071 25.6796 68.0371 24.7849C62.8725 23.7276 59.0091 22.3043 56.4471 20.5149C53.9258 18.7256 52.6651 15.9603 52.6651 12.2189C52.6651 8.64027 53.9665 5.75294 56.5691 3.55694C59.2125 1.36094 62.9538 0.262939 67.7931 0.262939C73.5678 0.262939 78.7935 1.38127 83.4701 3.61794L81.2741 8.13194C77.1261 6.05794 72.6121 5.02094 67.7321 5.02094C64.5601 5.02094 62.1405 5.7326 60.4731 7.15594C58.8058 8.57927 57.9721 10.2669 57.9721 12.2189C57.9721 14.3743 58.9075 15.9603 60.7781 16.9769C62.6488 17.9936 65.6785 18.9696 69.8671 19.9049C72.3478 20.4336 74.3811 20.9623 75.9671 21.4909C77.5938 22.0196 79.1595 22.7516 80.6641 23.6869C82.2095 24.5816 83.3481 25.7406 84.0801 27.1639C84.8121 28.5466 85.1781 30.2139 85.1781 32.1659C85.1781 36.3546 83.8361 39.5063 81.1521 41.6209C78.5088 43.6949 74.8284 44.7319 70.1111 44.7319Z" fill="white"/>
<path d="M108.117 44.7319C104.538 44.7319 101.468 44.4473 98.906 43.8779C96.3846 43.3086 93.4973 42.3326 90.244 40.9499L92.196 36.1309C95.3273 37.5543 97.991 38.5506 100.187 39.1199C102.424 39.6893 104.965 39.9739 107.812 39.9739C110.984 39.9739 113.444 39.3233 115.193 38.0219C116.982 36.6799 117.877 34.8296 117.877 32.4709C117.877 30.2343 116.962 28.6279 115.132 27.6519C113.343 26.6353 110.313 25.6796 106.043 24.7849C100.878 23.7276 97.015 22.3043 94.453 20.5149C91.9316 18.7256 90.671 15.9603 90.671 12.2189C90.671 8.64027 91.9723 5.75294 94.575 3.55694C97.2183 1.36094 100.96 0.262939 105.799 0.262939C111.574 0.262939 116.799 1.38127 121.476 3.61794L119.28 8.13194C115.132 6.05794 110.618 5.02094 105.738 5.02094C102.566 5.02094 100.146 5.7326 98.479 7.15594C96.8116 8.57927 95.978 10.2669 95.978 12.2189C95.978 14.3743 96.9133 15.9603 98.784 16.9769C100.655 17.9936 103.684 18.9696 107.873 19.9049C110.354 20.4336 112.387 20.9623 113.973 21.4909C115.6 22.0196 117.165 22.7516 118.67 23.6869C120.215 24.5816 121.354 25.7406 122.086 27.1639C122.818 28.5466 123.184 30.2139 123.184 32.1659C123.184 36.3546 121.842 39.5063 119.158 41.6209C116.515 43.6949 112.834 44.7319 108.117 44.7319Z" fill="white"/>
<path d="M147.526 0.994937C158.059 0.994937 163.325 5.83427 163.325 15.5129C163.325 25.4356 157.509 30.3969 145.879 30.3969H135.631V43.9999H130.507V0.994937H147.526ZM145.574 25.6389C153.87 25.6389 158.018 22.2839 158.018 15.5739C158.018 9.0266 154.317 5.75294 146.916 5.75294H135.631V25.6389H145.574Z" fill="white"/>
<path d="M2.06441 71.9999V55.0799H3.45641V70.7039H13.5604V71.9999H2.06441Z" fill="white"/>
<path d="M28.8932 71.9999L26.9252 67.5359H17.9492L15.9812 71.9999H14.4692L21.9812 54.9839H22.8932L30.3812 71.9999H28.8932ZM22.4372 57.0719L20.5652 61.4399L18.5492 66.2399H26.3012L24.2852 61.4399L22.4372 57.0719Z" fill="white"/>
<path d="M42.1504 63.2159C44.7904 63.6799 46.1104 65.0399 46.1104 67.2959C46.1104 70.4319 44.1984 71.9999 40.3744 71.9999H32.8144V55.0799H39.7504C41.4144 55.0799 42.6784 55.4559 43.5424 56.2079C44.4064 56.9599 44.8384 58.0079 44.8384 59.3519C44.8384 61.3839 43.9424 62.6719 42.1504 63.2159ZM34.2064 56.3759V62.7359H39.6064C42.1504 62.7359 43.4224 61.6239 43.4224 59.3999C43.4224 58.4079 43.0944 57.6559 42.4384 57.1439C41.7984 56.6319 40.9024 56.3759 39.7504 56.3759H34.2064ZM40.3744 70.7039C41.8784 70.7039 42.9744 70.4239 43.6624 69.8639C44.3504 69.3039 44.6944 68.4479 44.6944 67.2959C44.6944 65.1199 43.1104 64.0319 39.9424 64.0319H34.2064V70.7039H40.3744Z" fill="white"/>
</svg>
